<svg width="160" height="160" viewBox="0 0 160 160" fill="none" xmlns="http://www.w3.org/2000/svg">
<g clip-path="url(#clip0_601_9194)">
<path d="M92.2216 41.1109H66.666V80.2664H92.3994C97.8496 80.5088 103.175 78.5909 107.22 74.9293C111.264 71.2678 113.7 66.1583 113.999 60.7109C113.863 57.9918 113.191 55.3264 112.021 52.8679C110.851 50.4093 109.208 48.2061 107.184 46.3848C105.16 44.5636 102.797 43.1601 100.229 42.255C97.6612 41.3499 94.94 40.9611 92.2216 41.1109Z" fill="#0A2492"/>
<path d="M79.9998 8.88867C65.9354 8.88867 52.1868 13.0593 40.4926 20.8731C28.7984 28.6868 19.6839 39.7929 14.3017 52.7867C8.91948 65.7806 7.51125 80.0787 10.2551 93.8729C12.9989 107.667 19.7716 120.338 29.7167 130.283C39.6617 140.228 52.3325 147.001 66.1267 149.745C79.9209 152.488 94.219 151.08 107.213 145.698C120.207 140.316 131.313 131.201 139.127 119.507C146.94 107.813 151.111 94.0642 151.111 79.9998C151.111 61.1399 143.619 43.0526 130.283 29.7166C116.947 16.3807 98.8597 8.88867 79.9998 8.88867ZM92.222 91.3776H66.6665V97.7776H103.511C104.69 97.7776 105.82 98.2458 106.654 99.0793C107.487 99.9128 107.955 101.043 107.955 102.222C107.955 103.401 107.487 104.531 106.654 105.365C105.82 106.198 104.69 106.666 103.511 106.666H66.6665V128.889C66.6665 130.362 66.0812 131.775 65.0393 132.817C63.9974 133.859 62.5844 134.444 61.1109 134.444C59.6375 134.444 58.2244 133.859 57.1826 132.817C56.1407 131.775 55.5554 130.362 55.5554 128.889V106.666H49.9998C48.8211 106.666 47.6906 106.198 46.8571 105.365C46.0236 104.531 45.5554 103.401 45.5554 102.222C45.5554 101.043 46.0236 99.9128 46.8571 99.0793C47.6906 98.2458 48.8211 97.7776 49.9998 97.7776H55.3776V91.3776H49.9998C48.5264 91.3776 47.1133 90.7923 46.0714 89.7504C45.0296 88.7085 44.4443 87.2954 44.4443 85.822C44.4443 84.3486 45.0296 82.9355 46.0714 81.8936C47.1133 80.8518 48.5264 80.2665 49.9998 80.2665H55.3776V35.5553C55.3776 34.0819 55.9629 32.6688 57.0048 31.627C58.0466 30.5851 59.4597 29.9998 60.9332 29.9998H92.0443C100.447 29.7361 108.61 32.8173 114.743 38.5669C120.876 44.3164 124.477 52.2645 124.755 60.6665C124.477 69.0406 120.902 76.9657 114.809 82.7173C108.716 88.4689 100.598 91.5814 92.222 91.3776Z" fill="#0A2492"/>
</g>
<defs>
<clipPath id="clip0_601_9194">
<rect width="160" height="160" fill="white"/>
</clipPath>
</defs>
</svg>
