<svg width="24" height="24" viewBox="0 0 24 24" fill="none" xmlns="http://www.w3.org/2000/svg">
<path d="M0.585938 12.0023C0.586595 14.7805 1.57815 17.4674 3.38239 19.58C5.18663 21.6926 7.68524 23.0924 10.4291 23.5278V15.374H7.46927V12.0023H10.4326V9.43568C10.3672 8.83495 10.4348 8.22718 10.6307 7.65554C10.8266 7.0839 11.146 6.5624 11.5662 6.1281C11.9863 5.69379 12.497 5.35733 13.0618 5.14261C13.6267 4.92788 14.2319 4.84016 14.8344 4.88568C15.7094 4.89968 16.5844 4.97785 17.4478 5.11901V7.98785H15.9731C15.7225 7.95502 15.4677 7.97893 15.2275 8.05782C14.9874 8.13671 14.768 8.26856 14.5857 8.44362C14.4033 8.61869 14.2627 8.83249 14.1741 9.06922C14.0855 9.30596 14.0512 9.55958 14.0738 9.81135V12.0023H17.3066L16.7898 15.3752H14.0738V23.5278C16.276 23.1798 18.3324 22.208 19.9995 20.7276C21.6665 19.2471 22.8745 17.32 23.4803 15.1743C24.0861 13.0286 24.0645 10.7543 23.4178 8.62057C22.7712 6.48684 21.5267 4.58308 19.8317 3.13468C18.1367 1.68628 16.0622 0.753894 13.8537 0.447918C11.6452 0.141941 9.39534 0.475187 7.3704 1.4082C5.34545 2.34121 3.63026 3.83492 2.42788 5.71247C1.2255 7.59002 0.586291 9.77279 0.585938 12.0023Z" fill="white"/>
</svg>
