<svg width="787" height="375" viewBox="0 0 787 375" fill="none" xmlns="http://www.w3.org/2000/svg">
<circle r="291.92" transform="matrix(0.753804 -0.657099 0.973862 0.227139 568.58 275.64)" stroke="#407BFF" stroke-opacity="0.15" stroke-width="10"/>
<circle r="270.76" transform="matrix(0.753804 -0.657099 0.973862 0.227139 568.581 275.64)" stroke="#407BFF" stroke-opacity="0.15" stroke-width="10"/>
<circle r="246.466" transform="matrix(0.753804 -0.657099 0.973862 0.227139 568.579 275.64)" stroke="#407BFF" stroke-opacity="0.15" stroke-width="10"/>
<circle r="222.76" transform="matrix(0.753804 -0.657099 0.973862 0.227139 568.242 275.724)" stroke="#407BFF" stroke-opacity="0.15" stroke-width="10"/>
<circle r="204.736" transform="matrix(0.753804 -0.657099 0.973862 0.227139 568.242 275.725)" stroke="#407BFF" stroke-opacity="0.15" stroke-width="10"/>
<ellipse rx="167.903" ry="167.903" transform="matrix(0.753804 -0.657099 0.973862 0.227139 564.807 274.924)" stroke="#407BFF" stroke-opacity="0.15" stroke-width="10"/>
<ellipse rx="150.074" ry="150.074" transform="matrix(0.753804 -0.657099 0.973862 0.227139 565.145 274.839)" stroke="#407BFF" stroke-opacity="0.15" stroke-width="10"/>
<ellipse rx="130.482" ry="130.482" transform="matrix(0.753804 -0.657099 0.973862 0.227139 565.147 274.839)" stroke="#407BFF" stroke-opacity="0.15" stroke-width="10"/>
<circle r="115.201" transform="matrix(0.753804 -0.657099 0.973862 0.227139 568.581 275.64)" stroke="#407BFF" stroke-opacity="0.15" stroke-width="10"/>
<circle r="93.0617" transform="matrix(0.753804 -0.657099 0.973862 0.227139 568.242 275.724)" stroke="#407BFF" stroke-opacity="0.15" stroke-width="10"/>
<ellipse rx="73.545" ry="73.545" transform="matrix(0.753804 -0.657099 0.973862 0.227139 565.059 275.122)" stroke="#407BFF" stroke-opacity="0.15" stroke-width="10"/>
<circle r="59.7953" transform="matrix(0.753804 -0.657099 0.973862 0.227139 568.218 275.556)" stroke="#407BFF" stroke-opacity="0.15" stroke-width="10"/>
<ellipse rx="43.8251" ry="43.8251" transform="matrix(0.753804 -0.657099 0.973862 0.227139 565.325 274.881)" stroke="#407BFF" stroke-opacity="0.15" stroke-width="10"/>
<ellipse rx="29.3405" ry="29.3405" transform="matrix(0.753804 -0.657099 0.973862 0.227139 565.044 275.125)" stroke="#407BFF" stroke-opacity="0.15" stroke-width="10"/>
<circle r="12.999" transform="matrix(0.753804 -0.657099 0.973862 0.227139 564.682 275.041)" stroke="#407BFF" stroke-opacity="0.15" stroke-width="10"/>
</svg>
