<svg width="24" height="24" viewBox="0 0 24 24" fill="none" xmlns="http://www.w3.org/2000/svg">
<path d="M11.625 0.375C5.20275 0.375 0 5.5785 0 12C0 18.4215 5.2035 23.625 11.625 23.625C18.0472 23.625 23.25 18.4215 23.25 12C23.25 5.5785 18.0465 0.375 11.625 0.375ZM17.3348 8.33925L15.4268 17.3302C15.2858 17.9678 14.9063 18.1222 14.3768 17.8223L11.4705 15.6803L10.0688 17.0303C9.91425 17.1847 9.783 17.316 9.483 17.316L9.68925 14.358L15.075 9.492C15.3098 9.28575 15.0232 9.16875 14.7135 9.375L8.05725 13.5653L5.1885 12.6698C4.56525 12.4733 4.551 12.0465 5.31975 11.7465L16.5278 7.42425C17.0483 7.23675 17.5028 7.551 17.334 8.3385L17.3348 8.33925Z" fill="white"/>
</svg>
